<?xml version="1.0" encoding="utf-8"?>
<!-- Generator: Adobe Illustrator 15.0.0, SVG Export Plug-In . SVG Version: 6.00 Build 0)  -->
<!DOCTYPE svg PUBLIC "-//W3C//DTD SVG 1.1//EN" "http://www.w3.org/Graphics/SVG/1.1/DTD/svg11.dtd">
<svg version="1.1" id="Layer_1" xmlns="http://www.w3.org/2000/svg" xmlns:xlink="http://www.w3.org/1999/xlink" x="0px" y="0px"
	 width="115px" height="163px" viewBox="0 0 115 163" enable-background="new 0 0 115 163" xml:space="preserve">
<g>
	<polygon fill="#FFFFFF" points="57.5,0.1 65.384,16.077 83.018,18.639 70.258,31.077 73.271,48.638 57.5,40.345 41.729,48.638 
		44.741,31.077 31.982,18.639 49.615,16.077 	"/>
	<g>
		<path fill="#FFFFFF" d="M57.5,64.593L0.379,34.859v97.788l57.087,29.719v0.035l0.033-0.018l0.033,0.018v-0.035l57.088-29.719
			V34.859L57.5,64.593z M74.868,96.914c-2.921-3.564-5.537-6.011-7.851-7.339c-2.274-1.364-4.949-2.049-8.021-2.049
			c-4.816,0-8.818,1.688-12.004,5.064s-4.777,7.604-4.777,12.686c0,5.195,1.535,9.463,4.608,12.801
			c3.108,3.338,7.071,5.005,11.889,5.005c3.072,0,5.783-0.663,8.136-1.989c2.274-1.29,4.949-3.792,8.021-7.511v16.896
			c-5.196,2.694-10.391,4.04-15.587,4.04c-8.572,0-15.739-2.769-21.505-8.305c-5.766-5.576-8.646-12.497-8.646-20.766
			c0-8.268,2.919-15.245,8.762-20.937c5.84-5.687,13.008-8.533,21.504-8.533c5.46,0,10.617,1.311,15.473,3.926V96.914z"/>
	</g>
</g>
</svg>
