<?xml version="1.0" encoding="utf-8"?>
<!-- Generator: Adobe Illustrator 15.0.0, SVG Export Plug-In . SVG Version: 6.00 Build 0)  -->
<!DOCTYPE svg PUBLIC "-//W3C//DTD SVG 1.1//EN" "http://www.w3.org/Graphics/SVG/1.1/DTD/svg11.dtd">
<svg version="1.1" id="Layer_1" xmlns="http://www.w3.org/2000/svg" xmlns:xlink="http://www.w3.org/1999/xlink" x="0px" y="0px"
	 width="1000px" height="800px" viewBox="0 0 1000 800" enable-background="new 0 0 1000 800" xml:space="preserve">
<g>
	<path fill="#FFFFFF" d="M23.797-0.958v1.926c-2.868,0.542-4.982,1.547-6.345,3.016c-1.362,1.469-2.044,3.145-2.044,5.026
		c0,1.911,0.349,4.286,1.049,7.123c0.7,2.837,1.049,5.312,1.049,7.421c0,1.939-0.579,3.915-1.739,5.925
		c-1.159,2.01-2.827,3.729-5.002,5.154c-1.517,0.998-3.936,1.939-7.255,2.823c3.549,1.113,6.124,2.212,7.728,3.298
		c2.118,1.456,3.707,3.168,4.765,5.139s1.588,3.841,1.588,5.61c0,1.714-0.349,3.997-1.048,6.853c-0.7,2.855-1.049,5.339-1.049,7.451
		c0,2.027,0.648,3.775,1.948,5.246c1.298,1.471,3.417,2.492,6.355,3.062v2.012h-1.501c-5.064,0-9.253-1.727-12.572-5.179
		c-2.43-2.54-3.646-5.337-3.646-8.39c0-1.969,0.443-4.664,1.327-8.089c0.657-2.54,0.984-4.809,0.984-6.806
		c0-2.254-0.713-4.173-2.14-5.758C4.822,40.323,2.74,39.305,0,38.847v-2.611c2.74-0.456,4.822-1.512,6.249-3.167
		c1.427-1.655,2.14-3.667,2.14-6.035c0-1.94-0.309-4.123-0.923-6.548c-0.868-3.396-1.302-5.978-1.302-7.748
		c0-1.854,0.556-3.738,1.668-5.649c1.114-1.912,2.512-3.467,4.195-4.665c1.684-1.199,3.524-2.069,5.522-2.611
		C19.089-0.616,21.173-0.873,23.797-0.958z"/>
	<path fill="#FFFFFF" d="M97.288,76.127v-1.969c2.812-0.542,4.896-1.548,6.259-3.018c1.363-1.469,2.045-3.146,2.045-5.029
		c0-1.883-0.342-4.244-1.027-7.083c-0.685-2.839-1.026-5.313-1.026-7.427c0-1.969,0.57-3.959,1.712-5.971
		c1.141-2.012,2.811-3.73,5.008-5.157c1.512-0.97,3.922-1.911,7.232-2.825c-3.527-1.114-6.088-2.211-7.68-3.296
		c-2.134-1.455-3.728-3.167-4.78-5.136c-1.053-1.968-1.579-3.837-1.579-5.607c0-1.712,0.343-3.994,1.028-6.848
		c0.685-2.853,1.026-5.322,1.026-7.405c0-2.054-0.638-3.809-1.915-5.264c-1.278-1.456-3.378-2.482-6.303-3.082v-1.969l1.495-0.042
		c5.038,0,9.207,1.727,12.51,5.179c2.42,2.54,3.63,5.351,3.63,8.432c0,1.941-0.435,4.623-1.302,8.047
		c-0.645,2.54-0.967,4.809-0.967,6.806c0,2.254,0.701,4.18,2.107,5.778c1.406,1.599,3.485,2.611,6.238,3.04v2.611
		c-2.768,0.456-4.857,1.512-6.271,3.166c-1.411,1.656-2.118,3.668-2.118,6.035c0,1.941,0.314,4.124,0.941,6.549
		c0.857,3.396,1.284,5.979,1.284,7.748c0,1.883-0.548,3.772-1.644,5.67c-1.096,1.898-2.484,3.446-4.162,4.645
		c-1.681,1.198-3.518,2.068-5.509,2.611C101.985,75.742,99.906,76.013,97.288,76.127z"/>
</g>
<g>
	<path fill="#FFFFFF" d="M81.052,9.458v17.52c-3.009-3.671-5.704-6.191-8.086-7.559c-2.344-1.406-5.098-2.109-8.262-2.109
		c-4.961,0-9.082,1.739-12.363,5.215c-3.281,3.477-4.922,7.833-4.922,13.066c0,5.352,1.582,9.747,4.746,13.183
		c3.202,3.438,7.285,5.156,12.246,5.156c3.164,0,5.956-0.683,8.379-2.051c2.344-1.327,5.098-3.905,8.262-7.734v17.402
		c-5.353,2.773-10.703,4.16-16.055,4.16c-8.828,0-16.211-2.851-22.148-8.555c-5.938-5.742-8.906-12.87-8.906-21.386
		c0-8.515,3.007-15.703,9.023-21.562c6.015-5.859,13.397-8.789,22.148-8.789C70.74,5.415,76.051,6.762,81.052,9.458z"/>
</g>
</svg>
