<?xml version="1.0" encoding="UTF-8" standalone="no"?>
<!-- Generator: Adobe Illustrator 15.0.0, SVG Export Plug-In . SVG Version: 6.00 Build 0)  -->

<svg
   xmlns:dc="http://purl.org/dc/elements/1.1/"
   xmlns:cc="http://creativecommons.org/ns#"
   xmlns:rdf="http://www.w3.org/1999/02/22-rdf-syntax-ns#"
   xmlns:svg="http://www.w3.org/2000/svg"
   xmlns="http://www.w3.org/2000/svg"
   xmlns:sodipodi="http://sodipodi.sourceforge.net/DTD/sodipodi-0.dtd"
   xmlns:inkscape="http://www.inkscape.org/namespaces/inkscape"
   version="1.1"
   id="Layer_1"
   x="0px"
   y="0px"
   width="120.999"
   height="77.127998"
   viewBox="0 0 120.999 77.127998"
   enable-background="new 0 0 1000 800"
   xml:space="preserve"
   inkscape:version="0.48.2 r9819"
   sodipodi:docname="logo.svg"><metadata
   id="metadata17"><rdf:RDF><cc:Work
       rdf:about=""><dc:format>image/svg+xml</dc:format><dc:type
         rdf:resource="http://purl.org/dc/dcmitype/StillImage" /><dc:title></dc:title></cc:Work></rdf:RDF></metadata><defs
   id="defs15" /><sodipodi:namedview
   pagecolor="#ffffff"
   bordercolor="#666666"
   borderopacity="1"
   objecttolerance="10"
   gridtolerance="10"
   guidetolerance="10"
   inkscape:pageopacity="0"
   inkscape:pageshadow="2"
   inkscape:window-width="1210"
   inkscape:window-height="759"
   id="namedview13"
   showgrid="false"
   inkscape:zoom="1.1564855"
   inkscape:cx="64.101695"
   inkscape:cy="-6.6187627"
   inkscape:window-x="0"
   inkscape:window-y="0"
   inkscape:window-maximized="0"
   inkscape:current-layer="Layer_1"
   showguides="true"
   inkscape:guide-bbox="true"
   fit-margin-top="0"
   fit-margin-left="0"
   fit-margin-right="0"
   fit-margin-bottom="0"><sodipodi:guide
     orientation="0,1"
     position="156.23804,-2.45197"
     id="guide3013" /><sodipodi:guide
     orientation="1,0"
     position="120.7858,-2.45197"
     id="guide3015" /></sodipodi:namedview>
<g
   id="g3"
   transform="translate(0,1.001)">
	<path
   d="M 23.797,-0.958 V 0.968 C 20.929,1.51 18.815,2.515 17.452,3.984 16.09,5.453 15.408,7.129 15.408,9.01 c 0,1.911 0.349,4.286 1.049,7.123 0.7,2.837 1.049,5.312 1.049,7.421 0,1.939 -0.579,3.915 -1.739,5.925 -1.159,2.01 -2.827,3.729 -5.002,5.154 -1.517,0.998 -3.936,1.939 -7.255,2.823 3.549,1.113 6.124,2.212 7.728,3.298 2.118,1.456 3.707,3.168 4.765,5.139 1.058,1.971 1.588,3.841 1.588,5.61 0,1.714 -0.349,3.997 -1.048,6.853 -0.7,2.855 -1.049,5.339 -1.049,7.451 0,2.027 0.648,3.775 1.948,5.246 1.298,1.471 3.417,2.492 6.355,3.062 v 2.012 h -1.501 c -5.064,0 -9.253,-1.727 -12.572,-5.179 -2.43,-2.54 -3.646,-5.337 -3.646,-8.39 0,-1.969 0.443,-4.664 1.327,-8.089 0.657,-2.54 0.984,-4.809 0.984,-6.806 0,-2.254 -0.713,-4.173 -2.14,-5.758 C 4.822,40.323 2.74,39.305 0,38.847 v -2.611 c 2.74,-0.456 4.822,-1.512 6.249,-3.167 1.427,-1.655 2.14,-3.667 2.14,-6.035 0,-1.94 -0.309,-4.123 -0.923,-6.548 C 6.598,17.09 6.164,14.508 6.164,12.738 6.164,10.884 6.72,9 7.832,7.089 8.946,5.177 10.344,3.622 12.027,2.424 c 1.684,-1.199 3.524,-2.069 5.522,-2.611 1.54,-0.429 3.624,-0.686 6.248,-0.771 z"
   id="path5"
   inkscape:connector-curvature="0"
   style="fill:#ffffff" />
	<path
   d="m 97.288,76.127 v -1.969 c 2.812,-0.542 4.896,-1.548 6.259,-3.018 1.363,-1.469 2.045,-3.146 2.045,-5.029 0,-1.883 -0.342,-4.244 -1.027,-7.083 -0.685,-2.839 -1.026,-5.313 -1.026,-7.427 0,-1.969 0.57,-3.959 1.712,-5.971 1.141,-2.012 2.811,-3.73 5.008,-5.157 1.512,-0.97 3.922,-1.911 7.232,-2.825 -3.527,-1.114 -6.088,-2.211 -7.68,-3.296 -2.134,-1.455 -3.728,-3.167 -4.78,-5.136 -1.053,-1.968 -1.579,-3.837 -1.579,-5.607 0,-1.712 0.343,-3.994 1.028,-6.848 0.685,-2.853 1.026,-5.322 1.026,-7.405 0,-2.054 -0.638,-3.809 -1.915,-5.264 C 102.313,2.636 100.213,1.61 97.288,1.01 v -1.969 l 1.495,-0.042 c 5.038,0 9.207,1.727 12.51,5.179 2.42,2.54 3.63,5.351 3.63,8.432 0,1.941 -0.435,4.623 -1.302,8.047 -0.645,2.54 -0.967,4.809 -0.967,6.806 0,2.254 0.701,4.18 2.107,5.778 1.406,1.599 3.485,2.611 6.238,3.04 v 2.611 c -2.768,0.456 -4.857,1.512 -6.271,3.166 -1.411,1.656 -2.118,3.668 -2.118,6.035 0,1.941 0.314,4.124 0.941,6.549 0.857,3.396 1.284,5.979 1.284,7.748 0,1.883 -0.548,3.772 -1.644,5.67 -1.096,1.898 -2.484,3.446 -4.162,4.645 -1.681,1.198 -3.518,2.068 -5.509,2.611 -1.535,0.426 -3.614,0.697 -6.232,0.811 z"
   id="path7"
   inkscape:connector-curvature="0"
   style="fill:#ffffff" />
</g>
<g
   id="g9"
   transform="translate(0,1.001)">
	<path
   d="m 81.052,9.458 v 17.52 c -3.009,-3.671 -5.704,-6.191 -8.086,-7.559 -2.344,-1.406 -5.098,-2.109 -8.262,-2.109 -4.961,0 -9.082,1.739 -12.363,5.215 -3.281,3.477 -4.922,7.833 -4.922,13.066 0,5.352 1.582,9.747 4.746,13.183 3.202,3.438 7.285,5.156 12.246,5.156 3.164,0 5.956,-0.683 8.379,-2.051 2.344,-1.327 5.098,-3.905 8.262,-7.734 v 17.402 c -5.353,2.773 -10.703,4.16 -16.055,4.16 -8.828,0 -16.211,-2.851 -22.148,-8.555 -5.938,-5.742 -8.906,-12.87 -8.906,-21.386 0,-8.515 3.007,-15.703 9.023,-21.562 6.015,-5.859 13.397,-8.789 22.148,-8.789 5.626,0 10.937,1.347 15.938,4.043 z"
   id="path11"
   inkscape:connector-curvature="0"
   style="fill:#ffffff" />
</g>
</svg>